<?xml version="1.0" encoding="UTF-8"?>
<svg xmlns="http://www.w3.org/2000/svg" viewBox="0 0 595 842" width="595" height="842">
  <defs>
    <linearGradient id="sunset" x1="0%" y1="0%" x2="100%" y2="100%">
      <stop offset="0%" stop-color="#ff6b6b"/>
      <stop offset="50%" stop-color="#f06595"/>
      <stop offset="100%" stop-color="#845ef7"/>
    </linearGradient>
    <filter id="shadow" x="-20%" y="-20%" width="140%" height="140%">
      <feDropShadow dx="0" dy="8" stdDeviation="12" flood-color="#ff6b6b" flood-opacity="0.25"/>
    </filter>
  </defs>
  <rect width="595" height="842" fill="#fff5f5"/>
  <rect width="595" height="280" fill="url(#sunset)"/>
  <path d="M0 248 Q297 320 595 248 L595 310 L0 310 Z" fill="#ffffff"/>
  <circle cx="88" cy="248" r="52" fill="#ffffff" filter="url(#shadow)"/>
  <circle cx="88" cy="248" r="46" fill="#f06595" opacity="0.35"/>
  <text x="160" y="228" font-family="Poppins,sans-serif" font-size="26" font-weight="700" fill="#ffffff">Sophia Bennett</text>
  <text x="160" y="258" font-family="DM Sans,sans-serif" font-size="13" fill="rgba(255,255,255,0.9)">Senior Product Designer</text>
  <rect x="380" y="56" width="180" height="32" rx="16" fill="rgba(255,255,255,0.25)"/>
  <rect x="48" y="330" width="499" height="470" rx="20" fill="#ffffff" filter="url(#shadow)"/>
  <rect x="64" y="350" width="130" height="430" rx="14" fill="#ff6b6b" opacity="0.08"/>
  <text x="80" y="380" font-family="Poppins,sans-serif" font-size="10" font-weight="700" fill="#ff6b6b" letter-spacing="2">EXPERTISE</text>
  <text x="80" y="420" font-family="DM Sans,sans-serif" font-size="10" fill="#2d3436">Figma</text>
  <text x="80" y="442" font-family="DM Sans,sans-serif" font-size="10" fill="#2d3436">React</text>
  <text x="80" y="464" font-family="DM Sans,sans-serif" font-size="10" fill="#2d3436">UI/UX</text>
  <text x="210" y="380" font-family="Poppins,sans-serif" font-size="14" font-weight="700" fill="#2d3436">About Me</text>
  <rect x="210" y="392" width="48" height="4" rx="2" fill="#ff6b6b"/>
  <rect x="210" y="410" width="310" height="6" rx="3" fill="#e9ecef"/>
  <rect x="210" y="424" width="280" height="6" rx="3" fill="#e9ecef"/>
  <rect x="210" y="438" width="300" height="6" rx="3" fill="#e9ecef"/>
  <text x="210" y="480" font-family="Poppins,sans-serif" font-size="14" font-weight="700" fill="#2d3436">Experience</text>
  <rect x="210" y="500" width="310" height="5" rx="2" fill="#f1f3f5"/>
  <rect x="210" y="514" width="290" height="5" rx="2" fill="#f1f3f5"/>
  <rect x="210" y="528" width="300" height="5" rx="2" fill="#f1f3f5"/>
</svg>
